<mxfile host="app.diagrams.net" modified="2023-01-16T02:09:16.298Z" agent="5.0 (Windows NT 10.0; Win64; x64) AppleWebKit/537.36 (KHTML, like Gecko) Chrome/109.0.0.0 Safari/537.36" etag="U24bOtue_ziNRWxmjf3A" version="20.8.5" type="github">
  <diagram name="Page-1" id="e7e014a7-5840-1c2e-5031-d8a46d1fe8dd">
    <mxGraphModel dx="4169" dy="1606" grid="1" gridSize="10" guides="1" tooltips="1" connect="1" arrows="1" fold="1" page="1" pageScale="1" pageWidth="1169" pageHeight="826" background="none" math="0" shadow="0">
      <root>
        <mxCell id="0" />
        <mxCell id="1" parent="0" />
        <mxCell id="SPDB-RYZYYu29DdNVvm_-6" value="Admin" style="swimlane;whiteSpace=wrap;startSize=23;" parent="1" vertex="1">
          <mxGeometry x="-980" y="40" width="830" height="690" as="geometry" />
        </mxCell>
        <mxCell id="pB2fyGcaQjWH1ag6znyL-3" value="" style="edgeStyle=orthogonalEdgeStyle;rounded=0;orthogonalLoop=1;jettySize=auto;html=1;strokeColor=#FF2A00;startArrow=none;startFill=0;endArrow=open;endFill=0;" edge="1" parent="SPDB-RYZYYu29DdNVvm_-6" source="SPDB-RYZYYu29DdNVvm_-7" target="pB2fyGcaQjWH1ag6znyL-1">
          <mxGeometry relative="1" as="geometry" />
        </mxCell>
        <mxCell id="SPDB-RYZYYu29DdNVvm_-7" value="" style="ellipse;shape=startState;fillColor=#000000;strokeColor=#ff0000;" parent="SPDB-RYZYYu29DdNVvm_-6" vertex="1">
          <mxGeometry x="160" y="50" width="30" height="30" as="geometry" />
        </mxCell>
        <mxCell id="pB2fyGcaQjWH1ag6znyL-1" value="&lt;b&gt;UC -01&lt;br&gt;Login&lt;br&gt;&lt;/b&gt;" style="rounded=1;whiteSpace=wrap;html=1;arcSize=40;fontColor=#000000;fillColor=#ffffc0;strokeColor=#ff0000;" vertex="1" parent="SPDB-RYZYYu29DdNVvm_-6">
          <mxGeometry x="115" y="140" width="120" height="40" as="geometry" />
        </mxCell>
        <mxCell id="pB2fyGcaQjWH1ag6znyL-4" value="Memilih menu lihat pembayaran" style="whiteSpace=wrap;html=1;fillColor=#ffffc0;strokeColor=#ff0000;fontColor=#000000;rounded=1;arcSize=40;fontStyle=0" vertex="1" parent="SPDB-RYZYYu29DdNVvm_-6">
          <mxGeometry x="115" y="230" width="120" height="60" as="geometry" />
        </mxCell>
        <mxCell id="pB2fyGcaQjWH1ag6znyL-5" value="" style="edgeStyle=orthogonalEdgeStyle;rounded=0;orthogonalLoop=1;jettySize=auto;html=1;strokeColor=#FF2A00;startArrow=none;startFill=0;endArrow=open;endFill=0;" edge="1" parent="SPDB-RYZYYu29DdNVvm_-6" source="pB2fyGcaQjWH1ag6znyL-1" target="pB2fyGcaQjWH1ag6znyL-4">
          <mxGeometry relative="1" as="geometry" />
        </mxCell>
        <mxCell id="pB2fyGcaQjWH1ag6znyL-11" value="" style="edgeStyle=orthogonalEdgeStyle;rounded=0;orthogonalLoop=1;jettySize=auto;html=1;strokeColor=#FF2A00;startArrow=none;startFill=0;endArrow=open;endFill=0;" edge="1" parent="SPDB-RYZYYu29DdNVvm_-6" source="pB2fyGcaQjWH1ag6znyL-8" target="pB2fyGcaQjWH1ag6znyL-10">
          <mxGeometry relative="1" as="geometry" />
        </mxCell>
        <mxCell id="pB2fyGcaQjWH1ag6znyL-8" value="Memilih List pembayaran" style="whiteSpace=wrap;html=1;fillColor=#ffffc0;strokeColor=#ff0000;fontColor=#000000;rounded=1;arcSize=40;fontStyle=0;" vertex="1" parent="SPDB-RYZYYu29DdNVvm_-6">
          <mxGeometry x="110" y="313" width="120" height="60" as="geometry" />
        </mxCell>
        <mxCell id="pB2fyGcaQjWH1ag6znyL-10" value="Menekan tombol terima" style="whiteSpace=wrap;html=1;fillColor=#ffffc0;strokeColor=#ff0000;fontColor=#000000;rounded=1;arcSize=40;fontStyle=0;" vertex="1" parent="SPDB-RYZYYu29DdNVvm_-6">
          <mxGeometry x="110" y="410" width="120" height="60" as="geometry" />
        </mxCell>
        <mxCell id="SPDB-RYZYYu29DdNVvm_-20" value="Sistem" style="swimlane;whiteSpace=wrap" parent="1" vertex="1">
          <mxGeometry x="-545" y="40" width="395" height="690" as="geometry" />
        </mxCell>
        <mxCell id="RG1qngbpqG3eQFfVuzPi-30" style="edgeStyle=orthogonalEdgeStyle;rounded=0;orthogonalLoop=1;jettySize=auto;html=1;strokeColor=#FF0A0A;endArrow=open;endFill=0;exitX=0.5;exitY=1;exitDx=0;exitDy=0;entryX=0.5;entryY=0;entryDx=0;entryDy=0;" parent="SPDB-RYZYYu29DdNVvm_-20" source="pB2fyGcaQjWH1ag6znyL-12" target="RG1qngbpqG3eQFfVuzPi-29" edge="1">
          <mxGeometry relative="1" as="geometry">
            <mxPoint x="225" y="560" as="sourcePoint" />
            <mxPoint x="195" y="550" as="targetPoint" />
          </mxGeometry>
        </mxCell>
        <mxCell id="RG1qngbpqG3eQFfVuzPi-29" value="" style="ellipse;html=1;shape=endState;fillColor=#000000;strokeColor=#ff0000;" parent="SPDB-RYZYYu29DdNVvm_-20" vertex="1">
          <mxGeometry x="180" y="520" width="30" height="30" as="geometry" />
        </mxCell>
        <mxCell id="pB2fyGcaQjWH1ag6znyL-6" value="Menampilakan List Pembayaran&amp;nbsp;" style="whiteSpace=wrap;html=1;fillColor=#ffffc0;strokeColor=#ff0000;fontColor=#000000;rounded=1;arcSize=40;fontStyle=0;" vertex="1" parent="SPDB-RYZYYu29DdNVvm_-20">
          <mxGeometry x="120" y="230" width="120" height="60" as="geometry" />
        </mxCell>
        <mxCell id="pB2fyGcaQjWH1ag6znyL-12" value="Menampilkan pesan pembayaran telah terverifikasi" style="whiteSpace=wrap;html=1;fillColor=#ffffc0;strokeColor=#ff0000;fontColor=#000000;rounded=1;arcSize=40;fontStyle=0;" vertex="1" parent="SPDB-RYZYYu29DdNVvm_-20">
          <mxGeometry x="135" y="410" width="120" height="60" as="geometry" />
        </mxCell>
        <mxCell id="pB2fyGcaQjWH1ag6znyL-7" value="" style="edgeStyle=orthogonalEdgeStyle;rounded=0;orthogonalLoop=1;jettySize=auto;html=1;strokeColor=#FF2A00;startArrow=none;startFill=0;endArrow=open;endFill=0;" edge="1" parent="1" source="pB2fyGcaQjWH1ag6znyL-4" target="pB2fyGcaQjWH1ag6znyL-6">
          <mxGeometry relative="1" as="geometry" />
        </mxCell>
        <mxCell id="pB2fyGcaQjWH1ag6znyL-9" value="" style="edgeStyle=orthogonalEdgeStyle;rounded=0;orthogonalLoop=1;jettySize=auto;html=1;strokeColor=#FF2A00;startArrow=none;startFill=0;endArrow=open;endFill=0;" edge="1" parent="1" source="pB2fyGcaQjWH1ag6znyL-6" target="pB2fyGcaQjWH1ag6znyL-8">
          <mxGeometry relative="1" as="geometry">
            <Array as="points">
              <mxPoint x="-365" y="383" />
            </Array>
          </mxGeometry>
        </mxCell>
        <mxCell id="pB2fyGcaQjWH1ag6znyL-13" value="" style="edgeStyle=orthogonalEdgeStyle;rounded=0;orthogonalLoop=1;jettySize=auto;html=1;strokeColor=#FF2A00;startArrow=none;startFill=0;endArrow=open;endFill=0;" edge="1" parent="1" source="pB2fyGcaQjWH1ag6znyL-10" target="pB2fyGcaQjWH1ag6znyL-12">
          <mxGeometry relative="1" as="geometry" />
        </mxCell>
      </root>
    </mxGraphModel>
  </diagram>
</mxfile>
